<svg width="21" height="20" viewBox="0 0 21 20" fill="none" xmlns="http://www.w3.org/2000/svg">
<ellipse cx="10.3962" cy="10.1316" rx="9.6291" ry="9.75194" fill="black" fill-opacity="0.4"/>
<path d="M4.37695 10.1019C4.37695 11.85 5.24252 12.9659 6.65544 12.9659C8.06836 12.9659 8.96363 11.8245 8.96363 10.1019V9.8176C8.96363 8.06524 8.11079 6.96631 6.68514 6.96631C5.2595 6.96631 4.37695 8.0907 4.37695 9.8176V10.1019ZM5.7729 9.82184C5.7729 8.71867 6.1081 8.07797 6.66817 8.07797C7.23249 8.07797 7.56769 8.72291 7.56769 9.82184V10.0976C7.56769 11.2008 7.22825 11.8542 6.66817 11.8542C6.1081 11.8542 5.7729 11.2051 5.7729 10.0976V9.82184Z" fill="#EEECEC"/>
<path d="M10.7414 14.434L11.2676 11.7397H9.92255L9.63827 14.434H10.7414Z" fill="#EEECEC"/>
<path d="M12.1628 11.2857C12.1883 12.2276 13.0157 12.9659 14.3183 12.9659C15.6676 12.9659 16.5925 12.1597 16.5925 10.8868C16.5925 9.65212 15.7142 8.99022 14.7256 8.99022C14.0637 8.99022 13.6734 9.29996 13.5588 9.48665H13.4909L13.6012 8.16283H16.2446V7.06814H12.5108L12.2817 10.4795H13.5079C13.6097 10.2886 13.877 10.0128 14.3353 10.0128C14.8529 10.0128 15.2602 10.3819 15.2602 10.9335C15.2602 11.5275 14.8359 11.8967 14.3268 11.8967C13.8813 11.8967 13.4867 11.6633 13.4188 11.2857H12.1628Z" fill="#EEECEC"/>
</svg>
