<svg width="20" height="20" viewBox="0 0 20 20" fill="none" xmlns="http://www.w3.org/2000/svg">
<ellipse cx="10.1154" cy="10.1316" rx="9.6291" ry="9.75194" fill="black" fill-opacity="0.4"/>
<path d="M9.33013 8.87566C9.33013 8.85444 9.33013 8.81625 9.33013 8.78655C9.33013 8.40044 9.60592 8.05252 10.0727 8.05252C10.497 8.05252 10.8152 8.35801 10.8152 8.74837C10.8152 9.18964 10.48 9.54181 10.1787 9.85155L8.09966 12.0027V12.8598H12.2748V11.7566H9.98355V11.693L11.1504 10.4498C11.6256 9.94913 12.1857 9.4527 12.1857 8.60835C12.1857 7.67489 11.3668 6.96631 10.0981 6.96631C8.65974 6.96631 8.01904 7.9125 8.01904 8.79928V8.87566H9.33013Z" fill="#EEECEC"/>
</svg>
