<svg width="20" height="20" viewBox="0 0 20 20" fill="none" xmlns="http://www.w3.org/2000/svg">
<ellipse cx="10.3449" cy="10.1316" rx="9.6291" ry="9.75194" fill="black" fill-opacity="0.4"/>
<path d="M9.68981 10.3947H10.339C10.9033 10.3947 11.2343 10.7256 11.2385 11.1499C11.2427 11.5954 10.8736 11.9094 10.322 11.9094C9.80861 11.9052 9.4225 11.6251 9.40553 11.239H8.14111C8.15809 12.1598 8.90485 12.9659 10.3305 12.9659C11.5228 12.9659 12.6217 12.3846 12.6132 11.2263C12.6047 10.3225 11.9301 9.90673 11.3785 9.85581V9.78368C11.7901 9.72003 12.4562 9.31695 12.4478 8.49381C12.4393 7.59854 11.6458 6.96209 10.3687 6.96633C9.03639 6.96633 8.25992 7.66218 8.22597 8.67626H9.50736C9.52009 8.33257 9.83407 8.00162 10.3178 8.00162C10.759 8.00162 11.1027 8.27317 11.1027 8.67626C11.1027 9.06661 10.7845 9.36362 10.3135 9.36362H9.68981V10.3947Z" fill="#EEECEC"/>
</svg>
